<?xml version="1.0" encoding="UTF-8"?>
<svg xmlns="http://www.w3.org/2000/svg" width="100%" height="100%">
   <g transform="translate(50, 20)">
      <g id="PERSON">
         <line x1="0"
               y1="35"
               x2="411.174624523649406"
               y2="35"
               stroke="lightsalmon"
               stroke-width="20"/>
         <text x="150" y="220" fill="wblack">Name Type Percentiles</text>
         <line x1="0"
               y1="200"
               x2="500"
               y2="200"
               style="stroke:rgb(0,0,0);stroke-width:2"/>
         <line x1="0"
               y1="0"
               x2="0"
               y2="200"
               style="stroke:rgb(0,0,0);stroke-width:2"/>
         <text x="-45" y="40" fill="black">Person</text>
         <text x="-35" y="75" fill="black">GPE</text>
         <text x="-35" y="110" fill="black">ORG</text>
         <text x="-45" y="145" fill="black">NORP</text>
         <text x="-35" y="180" fill="black">LOC</text>
         <text x="420" y="40" fill="black">82.2%</text>
         <text x="48" y="75" fill="black">7.9%</text>
         <text x="47" y="110" fill="black">7.7%</text>
         <text x="16" y="145" fill="black">1.4%</text>
         <text x="13" y="180" fill="black">0.82%</text>
      </g>
      <g id="GPE">
         <line x1="0"
               y1="70"
               x2="39.4530374355525665"
               y2="70"
               stroke="mediumorchid"
               stroke-width="20"/>
         <text x="150" y="220" fill="wblack">Name Type Percentiles</text>
         <line x1="0"
               y1="200"
               x2="500"
               y2="200"
               style="stroke:rgb(0,0,0);stroke-width:2"/>
         <line x1="0"
               y1="0"
               x2="0"
               y2="200"
               style="stroke:rgb(0,0,0);stroke-width:2"/>
         <text x="-45" y="40" fill="black">Person</text>
         <text x="-35" y="75" fill="black">GPE</text>
         <text x="-35" y="110" fill="black">ORG</text>
         <text x="-45" y="145" fill="black">NORP</text>
         <text x="-35" y="180" fill="black">LOC</text>
         <text x="420" y="40" fill="black">82.2%</text>
         <text x="48" y="75" fill="black">7.9%</text>
         <text x="47" y="110" fill="black">7.7%</text>
         <text x="16" y="145" fill="black">1.4%</text>
         <text x="13" y="180" fill="black">0.82%</text>
      </g>
      <g id="ORG">
         <line x1="0"
               y1="105"
               x2="38.276171262048868"
               y2="105"
               stroke="darkseagreen"
               stroke-width="20"/>
         <text x="150" y="220" fill="wblack">Name Type Percentiles</text>
         <line x1="0"
               y1="200"
               x2="500"
               y2="200"
               style="stroke:rgb(0,0,0);stroke-width:2"/>
         <line x1="0"
               y1="0"
               x2="0"
               y2="200"
               style="stroke:rgb(0,0,0);stroke-width:2"/>
         <text x="-45" y="40" fill="black">Person</text>
         <text x="-35" y="75" fill="black">GPE</text>
         <text x="-35" y="110" fill="black">ORG</text>
         <text x="-45" y="145" fill="black">NORP</text>
         <text x="-35" y="180" fill="black">LOC</text>
         <text x="420" y="40" fill="black">82.2%</text>
         <text x="48" y="75" fill="black">7.9%</text>
         <text x="47" y="110" fill="black">7.7%</text>
         <text x="16" y="145" fill="black">1.4%</text>
         <text x="13" y="180" fill="black">0.82%</text>
      </g>
      <g id="NORP">
         <line x1="0"
               y1="140"
               x2="7.0051557946648735"
               y2="140"
               stroke="tomato"
               stroke-width="20"/>
         <text x="150" y="220" fill="wblack">Name Type Percentiles</text>
         <line x1="0"
               y1="200"
               x2="500"
               y2="200"
               style="stroke:rgb(0,0,0);stroke-width:2"/>
         <line x1="0"
               y1="0"
               x2="0"
               y2="200"
               style="stroke:rgb(0,0,0);stroke-width:2"/>
         <text x="-45" y="40" fill="black">Person</text>
         <text x="-35" y="75" fill="black">GPE</text>
         <text x="-35" y="110" fill="black">ORG</text>
         <text x="-45" y="145" fill="black">NORP</text>
         <text x="-35" y="180" fill="black">LOC</text>
         <text x="420" y="40" fill="black">82.2%</text>
         <text x="48" y="75" fill="black">7.9%</text>
         <text x="47" y="110" fill="black">7.7%</text>
         <text x="16" y="145" fill="black">1.4%</text>
         <text x="13" y="180" fill="black">0.82%</text>
      </g>
      <g id="LOC">
         <line x1="0"
               y1="175"
               x2="4.091010984084286"
               y2="175"
               stroke="palevioletred"
               stroke-width="20"/>
         <text x="150" y="220" fill="wblack">Name Type Percentiles</text>
         <line x1="0"
               y1="200"
               x2="500"
               y2="200"
               style="stroke:rgb(0,0,0);stroke-width:2"/>
         <line x1="0"
               y1="0"
               x2="0"
               y2="200"
               style="stroke:rgb(0,0,0);stroke-width:2"/>
         <text x="-45" y="40" fill="black">Person</text>
         <text x="-35" y="75" fill="black">GPE</text>
         <text x="-35" y="110" fill="black">ORG</text>
         <text x="-45" y="145" fill="black">NORP</text>
         <text x="-35" y="180" fill="black">LOC</text>
         <text x="420" y="40" fill="black">82.2%</text>
         <text x="48" y="75" fill="black">7.9%</text>
         <text x="47" y="110" fill="black">7.7%</text>
         <text x="16" y="145" fill="black">1.4%</text>
         <text x="13" y="180" fill="black">0.82%</text>
      </g>
   </g>
</svg>
